<svg xmlns="http://www.w3.org/2000/svg" width="43" height="41" viewBox="0 0 43 41" fill="none"><path d="M19.5896 31.8354H0.5625V0H33.8607V18.6401H32.1081V1.67567H2.31524V30.1597H19.5896L19.5896 31.8354Z" fill="#FFB41B"></path><path d="M30.3557 40.2127C23.591 40.2127 18.0879 34.9513 18.0879 28.4838C18.0879 22.0163 23.591 16.7549 30.3557 16.7549C37.1204 16.7549 42.6236 22.0163 42.6236 28.4838C42.6236 34.9513 37.1204 40.2127 30.3557 40.2127V40.2127ZM30.3557 18.4306C24.5573 18.4306 19.8406 22.9402 19.8406 28.4838C19.8406 34.0275 24.5574 38.537 30.3557 38.537C36.1542 38.537 40.8709 34.0274 40.8709 28.4838C40.8709 22.9401 36.1541 18.4306 30.3557 18.4306V18.4306Z" fill="#FFB41B"></path><path d="M8.4479 27.0295C6.03225 27.0295 4.06641 25.5265 4.06641 23.6783C4.06641 21.8301 6.03193 20.3271 8.4479 20.3271C10.8636 20.3271 12.8294 21.8301 12.8294 23.6783C12.8294 25.5269 10.8639 27.0295 8.4479 27.0295V27.0295ZM8.4479 22.0031C7.02299 22.0031 5.81899 22.7703 5.81899 23.6786C5.81899 24.5866 7.02299 25.3542 8.4479 25.3542C9.87282 25.3542 11.0768 24.5869 11.0768 23.6786C11.0768 22.7703 9.87282 22.0031 8.4479 22.0031Z" fill="#FFB41B"></path><path d="M19.8405 22.3987C17.4248 22.3987 15.459 20.8957 15.459 19.0475C15.459 17.1993 17.4245 15.6963 19.8405 15.6963C22.2561 15.6963 24.222 17.1993 24.222 19.0475C24.222 20.8957 22.2565 22.3987 19.8405 22.3987ZM19.8405 17.3719C18.4156 17.3719 17.2116 18.1392 17.2116 19.0475C17.2116 19.9555 18.4156 20.7231 19.8405 20.7231C21.2654 20.7231 22.4694 19.9558 22.4694 19.0475C22.4694 18.1395 21.2654 17.3719 19.8405 17.3719V17.3719Z" fill="#FFB41B"></path><path d="M12.8327 24.0744H11.0801V9.59624C11.0801 8.24155 11.9049 7.06889 13.0866 6.74496L24.2242 3.69336V18.6001H22.4717V5.91669L13.5692 8.35474C13.149 8.47021 12.8324 9.00352 12.8324 9.59608L12.8327 24.0744Z" fill="#FFB41B"></path><path d="M11.6973 11.5441L23.0896 8.19531L23.6048 9.79739L12.2125 13.1462L11.6973 11.5441Z" fill="#FFB41B"></path><path d="M28.019 30.7711L27.0391 25.3135L32.7475 26.2503L32.4516 27.9014L29.1851 27.3653L29.7458 30.4883L28.019 30.7711Z" fill="#FFB41B"></path><path d="M27.9844 27.4014L29.2234 26.2168L36.2334 32.9188L34.9944 34.1034L27.9844 27.4014Z" fill="#FFB41B"></path></svg>